<svg preserveAspectRatio="none" overflow="visible" style="display: block;" width="174" height="53.7275" viewBox="0 0 174 53.7275" fill="none" xmlns="http://www.w3.org/2000/svg">
<g id="CompositeLayer">
<path id="Caminho 2" fill-rule="evenodd" clip-rule="evenodd" d="M167.928 21.2028H174V37.668H167.928V21.2028ZM167.928 14.8129H174V19.5223H167.928V14.8129ZM155.064 37.668L149.786 21.2028H155.772L158.392 31.0918L160.969 21.2028H166.694L161.792 37.668H155.064ZM143.644 37.668L143.269 36.0906C142.499 36.83 141.667 37.3727 140.778 37.7244C139.884 38.0808 138.881 38.2568 137.768 38.2568C136.061 38.2568 134.739 37.8019 133.802 36.8875C132.871 35.9725 132.404 34.6853 132.404 33.0149C132.404 31.3925 132.866 30.1876 133.783 29.412C134.702 28.6365 136.441 28.0678 138.994 27.7162C139.318 27.6646 139.755 27.6129 140.302 27.5512C142.209 27.3289 143.16 26.7911 143.16 25.9432C143.16 25.4729 142.984 25.1264 142.637 24.9094C142.29 24.6918 141.738 24.5834 140.987 24.5834C140.364 24.5834 139.884 24.7174 139.551 24.9865C139.218 25.2498 139.023 25.6637 138.966 26.2175H133.089C133.117 24.3716 133.812 22.976 135.176 22.0296C136.541 21.0838 138.547 20.6135 141.196 20.6135C142.442 20.6135 143.588 20.7374 144.643 20.9906C145.694 21.2438 146.517 21.5801 147.102 22.0093C147.815 22.5307 148.319 23.1258 148.604 23.7876C148.894 24.4493 149.037 25.3951 149.037 26.6255V35.8017C149.037 36.1065 149.094 36.3751 149.204 36.6129C149.318 36.8507 149.479 37.0471 149.693 37.1971V37.668H143.644ZM143.089 30.3217C142.514 30.5648 141.748 30.8232 140.792 31.0923C139.284 31.5264 138.533 32.1107 138.533 32.8347C138.533 33.2991 138.681 33.6612 138.98 33.9251C139.275 34.1884 139.698 34.3176 140.245 34.3176C141.248 34.3176 141.98 34.0644 142.441 33.5627C142.903 33.0563 143.131 32.2553 143.131 31.1541C143.131 30.9211 143.131 30.7456 143.126 30.6318C143.122 30.5276 143.109 30.4239 143.089 30.3217ZM125.16 15.3609H131.233V37.668H125.16V15.3609ZM106.681 44.2689V21.2028H112.016V23.3068C112.61 22.428 113.299 21.787 114.089 21.3784C114.878 20.9704 115.824 20.7634 116.918 20.7634C118.877 20.7634 120.465 21.5646 121.682 23.1621C122.9 24.7643 123.508 26.8686 123.508 29.4736C123.508 32.136 122.904 34.2611 121.692 35.848C120.48 37.4348 118.849 38.2259 116.809 38.2259C115.868 38.2259 115.05 38.0556 114.355 37.7093C113.656 37.3678 113.048 36.8354 112.529 36.122V44.2689H106.681ZM117.488 29.4689C117.488 28.1763 117.29 27.2197 116.889 26.5941C116.49 25.9685 115.882 25.6538 115.064 25.6538C114.185 25.6538 113.537 25.9585 113.133 26.5686C112.729 27.1788 112.529 28.1454 112.529 29.4689C112.529 30.7148 112.734 31.6445 113.148 32.2653C113.562 32.8856 114.185 33.1962 115.011 33.1962C115.824 33.1962 116.443 32.8808 116.861 32.2547C117.279 31.6296 117.488 30.7047 117.488 29.4689ZM78.3777 37.668V21.2028H83.8505V23.6114C84.5213 22.6396 85.2725 21.9262 86.1093 21.4613C86.946 20.9958 87.9069 20.7634 88.9909 20.7634C89.9847 20.7634 90.8402 20.9906 91.5627 21.4454C92.2811 21.9003 92.9227 22.6188 93.4934 23.6114C94.2258 22.6188 95.0292 21.8953 95.8993 21.4304C96.7742 20.9644 97.759 20.7319 98.8519 20.7319C100.635 20.7319 102.018 21.2338 103.003 22.2312C103.988 23.2344 104.482 24.6356 104.482 26.4442V37.668H98.5478V28.8481C98.5478 27.8199 98.3861 27.0751 98.0679 26.6102C97.7497 26.1447 97.2311 25.9123 96.5133 25.9123C95.7804 25.9123 95.2431 26.1549 94.8962 26.6411C94.554 27.122 94.3828 27.8819 94.3828 28.9102V37.668H88.4776V29.0757C88.4776 27.949 88.3107 27.1373 87.9831 26.6463C87.6544 26.1548 87.1124 25.9123 86.3612 25.9123C85.6909 25.9123 85.1823 26.1601 84.8354 26.6569C84.488 27.1474 84.3116 27.8713 84.3116 28.8219V37.668H78.3777ZM70.5825 32.7877H76.35C75.9317 34.5867 75.014 35.9465 73.5972 36.8716C72.1845 37.7972 70.3113 38.2568 67.9914 38.2568C65.3899 38.2568 63.3267 37.4716 61.8003 35.8997C60.2739 34.3336 59.5087 32.2185 59.5087 29.5619C59.5087 26.7957 60.2886 24.6148 61.8478 23.0114C63.4076 21.4145 65.5328 20.6135 68.2147 20.6135C70.9101 20.6135 73.0218 21.4815 74.5477 23.2236C76.0746 24.9663 76.8399 27.3803 76.8399 30.4721V30.8648L65.5422 30.8796C65.5709 31.9291 65.8276 32.7414 66.308 33.3095C66.7932 33.884 67.4635 34.1677 68.3289 34.1677C68.9132 34.1677 69.3983 34.0491 69.788 33.8113C70.1704 33.585 70.4543 33.2191 70.5825 32.7877ZM65.5422 27.5767H70.906C70.8392 26.5585 70.5825 25.793 70.1255 25.2865C69.6696 24.7748 69.0181 24.5211 68.1625 24.5211C67.3733 24.5211 66.7452 24.7904 66.2887 25.3335C65.8276 25.8708 65.5803 26.6202 65.5422 27.5767Z" fill="white"/>
<path id="Caminho 1" fill-rule="evenodd" clip-rule="evenodd" d="M26.2015 0C11.7703 0 0 12.0679 0 26.8637C0 41.6601 11.7703 53.7274 26.2015 53.7274C40.6328 53.7274 52.4036 41.6601 52.4036 26.8637C52.4036 12.0679 40.6328 0 26.2015 0ZM40.143 16.7322L23.7826 25.7292V27.8313L40.143 18.8343V26.6541L23.7826 35.6506V37.7524L40.143 28.756V37.1639L22.962 46.8333C17.6384 49.8293 11.03 44.847 11.03 40.5738V12.7381H12.2664V13.5254C12.2664 13.7727 12.2784 13.9866 12.293 14.234C12.6138 19.5429 17.6009 21.5564 21.24 19.5493L40.143 9.12298V16.7322Z" fill="white"/>
</g>
</svg>
